<svg xmlns="http://www.w3.org/2000/svg" width="1280" height="668" fill="none"><g clip-path="url(#a)"><mask id="b" width="1293" height="796" x="0" y="-100" maskUnits="userSpaceOnUse" style="mask-type:luminance"><path fill="#fff" d="M0 696h1293v-796H0z"/></mask><g stroke="#060606" stroke-opacity=".06" stroke-width=".238" mask="url(#b)"><path d="M1231.43 696H1293v-59.226h-61.57zm-61.57 0h61.57v-59.226h-61.57zm-61.58 0h61.58v-59.226h-61.58z"/><path d="M1046.71 696h61.58v-59.226h-61.58zm-61.568 0h61.568v-59.226h-61.568z"/><path d="M923.571 696h61.572v-59.226h-61.572z"/><path d="M862.001 696h61.571v-59.226h-61.571zm-61.573 0H862v-59.226h-61.572z"/><path d="M738.857 696h61.572v-59.226h-61.572zm-61.572 0h61.571v-59.226h-61.571zm-61.572 0h61.571v-59.226h-61.571z"/><path d="M554.144 696h61.572v-59.226h-61.572zm-61.572 0h61.572v-59.226h-61.572zM431 696h61.571v-59.226H431zm-61.574 0h61.572v-59.226h-61.572zm-61.572 0h61.572v-59.226h-61.572z"/><path d="M246.287 696h61.571v-59.226h-61.571zm-61.573 0h61.571v-59.226h-61.571zm-61.573 0h61.572v-59.226h-61.572z"/><path d="M61.574 696h61.572v-59.226H61.574zM0 696h61.572v-59.226H.001zm1231.43-59.226H1293v-59.227h-61.57zm-61.57 0h61.57v-59.227h-61.57z"/><path fill="#FF6B00" fill-opacity=".2" d="M1108.28 636.774h61.58v-59.227h-61.58z"/><path d="M1046.71 636.774h61.58v-59.227h-61.58zm-61.568 0h61.568v-59.227h-61.568z"/><path d="M923.571 636.774h61.572v-59.227h-61.572z"/><path d="M862.001 636.774h61.571v-59.227h-61.571zm-61.573 0H862v-59.227h-61.572z"/><path d="M738.857 636.774h61.572v-59.227h-61.572z"/><path fill="#FF6B00" fill-opacity=".2" d="M677.285 636.774h61.571v-59.227h-61.571z"/><path d="M615.713 636.774h61.571v-59.227h-61.571z"/><path d="M554.144 636.774h61.572v-59.227h-61.572zm-61.572 0h61.572v-59.227h-61.572zm-61.572 0h61.571v-59.227H431zm-61.574 0h61.572v-59.227h-61.572zm-61.572 0h61.572v-59.227h-61.572z"/><path d="M246.287 636.774h61.571v-59.227h-61.571zm-61.573 0h61.571v-59.227h-61.571zm-61.573 0h61.572v-59.227h-61.572z"/><path d="M61.574 636.774h61.572v-59.227H61.574zm-61.574 0h61.572v-59.227H.001zm1231.43-59.226H1293v-59.227h-61.57zm-61.57 0h61.57v-59.227h-61.57zm-61.58 0h61.58v-59.227h-61.58z"/><path d="M1046.71 577.548h61.58v-59.227h-61.58zm-61.568 0h61.568v-59.227h-61.568z"/><path d="M923.571 577.548h61.572v-59.227h-61.572z"/><path d="M862.001 577.548h61.571v-59.227h-61.571zm-61.573 0H862v-59.227h-61.572z"/><path d="M738.857 577.548h61.572v-59.227h-61.572zm-61.572 0h61.571v-59.227h-61.571zm-61.572 0h61.571v-59.227h-61.571z"/><path d="M554.144 577.548h61.572v-59.227h-61.572zm-61.572 0h61.572v-59.227h-61.572zm-61.572 0h61.571v-59.227H431zm-61.574 0h61.572v-59.227h-61.572zm-61.572 0h61.572v-59.227h-61.572z"/><path fill="#FF6B00" fill-opacity=".2" d="M246.287 577.548h61.571v-59.227h-61.571z"/><path d="M184.714 577.548h61.571v-59.227h-61.571zm-61.573 0h61.572v-59.227h-61.572z"/><path d="M61.574 577.548h61.572v-59.227H61.574zm-61.574 0h61.572v-59.227H.001zm1231.43-59.227H1293v-59.226h-61.57zm-61.57 0h61.57v-59.226h-61.57zm-61.58 0h61.58v-59.226h-61.58z"/><path d="M1046.71 518.321h61.58v-59.226h-61.58zm-61.568 0h61.568v-59.226h-61.568z"/><path d="M923.571 518.321h61.572v-59.226h-61.572z"/><path d="M862.001 518.321h61.571v-59.226h-61.571zm-61.573 0H862v-59.226h-61.572z"/><path d="M738.857 518.321h61.572v-59.226h-61.572zm-61.572 0h61.571v-59.226h-61.571zm-61.572 0h61.571v-59.226h-61.571z"/><path d="M554.144 518.321h61.572v-59.226h-61.572zm-61.572 0h61.572v-59.226h-61.572zm-61.572 0h61.571v-59.226H431zm-61.574 0h61.572v-59.226h-61.572zm-61.572 0h61.572v-59.226h-61.572z"/><path d="M246.287 518.321h61.571v-59.226h-61.571zm-61.573 0h61.571v-59.226h-61.571zm-61.573 0h61.572v-59.226h-61.572z"/><path d="M61.574 518.321h61.572v-59.226H61.574zm-61.574 0h61.572v-59.226H.001zm1231.43-59.226H1293v-59.226h-61.57zm-61.57 0h61.57v-59.226h-61.57zm-61.58 0h61.58v-59.226h-61.58z"/><path fill="#FF6B00" fill-opacity=".2" d="M1046.71 459.095h61.58v-59.226h-61.58z"/><path d="M985.142 459.095h61.568v-59.226h-61.568z"/><path d="M923.571 459.095h61.572v-59.226h-61.572z"/><path d="M862.001 459.095h61.571v-59.226h-61.571zm-61.573 0H862v-59.226h-61.572z"/><path d="M738.857 459.095h61.572v-59.226h-61.572zm-61.572 0h61.571v-59.226h-61.571zm-61.572 0h61.571v-59.226h-61.571z"/><path d="M554.144 459.095h61.572v-59.226h-61.572z"/><path fill="#FF6B00" fill-opacity=".2" d="M492.572 459.095h61.572v-59.226h-61.572z"/><path d="M431 459.095h61.571v-59.226H431zm-61.574 0h61.572v-59.226h-61.572z"/><path d="M307.859 459.095h61.572v-59.226h-61.572zm-61.572 0h61.571v-59.226h-61.571zm-61.573 0h61.571v-59.226h-61.571zm-61.573 0h61.572v-59.226h-61.572z"/><path d="M61.574 459.095h61.572v-59.226H61.574zm-61.574 0h61.572v-59.226H.001zm1231.43-59.226H1293v-59.226h-61.57zm-61.57 0h61.57v-59.226h-61.57zm-61.58 0h61.58v-59.226h-61.58z"/><path d="M1046.71 399.869h61.58v-59.226h-61.58zm-61.568 0h61.568v-59.226h-61.568z"/><path d="M923.571 399.869h61.572v-59.226h-61.572z"/><path d="M862.001 399.869h61.571v-59.226h-61.571zm-61.573 0H862v-59.226h-61.572z"/><path d="M738.857 399.869h61.572v-59.226h-61.572zm-61.572 0h61.571v-59.226h-61.571zm-61.572 0h61.571v-59.226h-61.571z"/><path d="M554.144 399.869h61.572v-59.226h-61.572zm-61.572 0h61.572v-59.226h-61.572zm-61.572 0h61.571v-59.226H431zm-61.574 0h61.572v-59.226h-61.572zm-61.572 0h61.572v-59.226h-61.572z"/><path d="M246.287 399.869h61.571v-59.226h-61.571zm-61.573 0h61.571v-59.226h-61.571z"/><path fill="#FF6B00" fill-opacity=".2" d="M123.141 399.869h61.572v-59.226h-61.572z"/><path d="M61.574 399.869h61.572v-59.226H61.574zm-61.574 0h61.572v-59.226H.001zm1231.43-59.226H1293v-59.227h-61.57zm-61.57 0h61.57v-59.227h-61.57zm-61.58 0h61.58v-59.227h-61.58z"/><path d="M1046.71 340.643h61.58v-59.227h-61.58zm-61.568 0h61.568v-59.227h-61.568z"/><path d="M923.571 340.643h61.572v-59.227h-61.572z"/><path d="M862.001 340.643h61.571v-59.227h-61.571zm-61.573 0H862v-59.227h-61.572z"/><path d="M738.857 340.643h61.572v-59.227h-61.572zm-61.572 0h61.571v-59.227h-61.571zm-61.572 0h61.571v-59.227h-61.571z"/><path d="M554.144 340.643h61.572v-59.227h-61.572zm-61.572 0h61.572v-59.227h-61.572zm-61.572 0h61.571v-59.227H431zm-61.574 0h61.572v-59.227h-61.572zm-61.572 0h61.572v-59.227h-61.572z"/><path d="M246.287 340.643h61.571v-59.227h-61.571zm-61.573 0h61.571v-59.227h-61.571zm-61.573 0h61.572v-59.227h-61.572z"/><path d="M61.574 340.643h61.572v-59.227H61.574zm-61.574 0h61.572v-59.227H.001zm1231.43-59.226H1293v-59.226h-61.57zm-61.57 0h61.57v-59.226h-61.57zm-61.58 0h61.58v-59.226h-61.58z"/><path d="M1046.71 281.417h61.58v-59.226h-61.58zm-61.568 0h61.568v-59.226h-61.568z"/><path d="M923.571 281.417h61.572v-59.226h-61.572z"/><path d="M862.001 281.417h61.571v-59.226h-61.571zm-61.573 0H862v-59.226h-61.572z"/><path fill="#FF6B00" fill-opacity=".2" d="M738.857 281.417h61.572v-59.226h-61.572z"/><path d="M677.285 281.417h61.571v-59.226h-61.571zm-61.572 0h61.571v-59.226h-61.571z"/><path d="M554.144 281.417h61.572v-59.226h-61.572zm-61.572 0h61.572v-59.226h-61.572zm-61.572 0h61.571v-59.226H431zm-61.574 0h61.572v-59.226h-61.572z"/><path d="M307.859 281.417h61.572v-59.226h-61.572zm-61.572 0h61.571v-59.226h-61.571zm-61.573 0h61.571v-59.226h-61.571zm-61.573 0h61.572v-59.226h-61.572z"/><path d="M61.574 281.417h61.572v-59.226H61.574zm-61.574 0h61.572v-59.226H.001zm1231.43-59.227H1293v-59.226h-61.57zm-61.57 0h61.57v-59.226h-61.57zm-61.58 0h61.58v-59.226h-61.58z"/><path d="M1046.71 222.19h61.58v-59.226h-61.58z"/><path fill="#FF6B00" fill-opacity=".2" d="M985.142 222.19h61.568v-59.226h-61.568z"/><path d="M923.571 222.19h61.572v-59.226h-61.572z"/><path d="M862.001 222.19h61.571v-59.226h-61.571zm-61.573 0H862v-59.226h-61.572z"/><path d="M738.857 222.19h61.572v-59.226h-61.572zm-61.572 0h61.571v-59.226h-61.571zm-61.572 0h61.571v-59.226h-61.571z"/><path d="M554.144 222.19h61.572v-59.226h-61.572zm-61.572 0h61.572v-59.226h-61.572zm-61.572 0h61.571v-59.226H431zm-61.574 0h61.572v-59.226h-61.572zm-61.572 0h61.572v-59.226h-61.572z"/><path d="M246.287 222.19h61.571v-59.226h-61.571zm-61.573 0h61.571v-59.226h-61.571zm-61.573 0h61.572v-59.226h-61.572z"/><path d="M61.574 222.19h61.572v-59.226H61.574zM0 222.19h61.572v-59.226H.001zm1231.43-59.226H1293v-59.227h-61.57zm-61.57 0h61.57v-59.227h-61.57zm-61.58 0h61.58v-59.227h-61.58z"/><path d="M1046.71 162.964h61.58v-59.227h-61.58zm-61.568 0h61.568v-59.227h-61.568z"/><path d="M923.571 162.964h61.572v-59.227h-61.572z"/><path d="M862.001 162.964h61.571v-59.227h-61.571zm-61.573 0H862v-59.227h-61.572z"/><path d="M738.857 162.964h61.572v-59.227h-61.572zm-61.572 0h61.571v-59.227h-61.571zm-61.572 0h61.571v-59.227h-61.571z"/><path d="M554.144 162.964h61.572v-59.227h-61.572zm-61.572 0h61.572v-59.227h-61.572zm-61.572 0h61.571v-59.227H431zm-61.574 0h61.572v-59.227h-61.572zm-61.572 0h61.572v-59.227h-61.572z"/><path d="M246.287 162.964h61.571v-59.227h-61.571zm-61.573 0h61.571v-59.227h-61.571zm-61.573 0h61.572v-59.227h-61.572z"/><path d="M61.574 162.964h61.572v-59.227H61.574zm-61.574 0h61.572v-59.227H.001zm1231.43-59.228H1293V44.51h-61.57zm-61.57 0h61.57V44.51h-61.57zm-61.58 0h61.58V44.51h-61.58z"/><path d="M1046.71 103.736h61.58V44.51h-61.58zm-61.568 0h61.568V44.51h-61.568z"/><path d="M923.571 103.736h61.572V44.51h-61.572z"/><path d="M862.001 103.736h61.571V44.51h-61.571zm-61.573 0H862V44.51h-61.572z"/><path d="M738.857 103.736h61.572V44.51h-61.572zm-61.572 0h61.571V44.51h-61.571zm-61.572 0h61.571V44.51h-61.571z"/><path d="M554.144 103.736h61.572V44.51h-61.572zm-61.572 0h61.572V44.51h-61.572zm-61.572 0h61.571V44.51H431zm-61.574 0h61.572V44.51h-61.572zm-61.572 0h61.572V44.51h-61.572z"/><path d="M246.287 103.736h61.571V44.51h-61.571zm-61.573 0h61.571V44.51h-61.571zm-61.573 0h61.572V44.51h-61.572z"/><path d="M61.574 103.736h61.572V44.51H61.574zm-61.574 0h61.572V44.51H.001zm1231.43-59.222H1293v-59.227h-61.57zm-61.57 0h61.57v-59.227h-61.57zm-61.58 0h61.58v-59.227h-61.58z"/><path d="M1046.71 44.514h61.58v-59.227h-61.58zm-61.568 0h61.568v-59.227h-61.568z"/><path d="M923.571 44.514h61.572v-59.227h-61.572z"/><path d="M862.001 44.514h61.571v-59.227h-61.571zm-61.573 0H862v-59.227h-61.572z"/><path d="M738.857 44.514h61.572v-59.227h-61.572zm-61.572 0h61.571v-59.227h-61.571zm-61.572 0h61.571v-59.227h-61.571z"/><path d="M554.144 44.514h61.572v-59.227h-61.572zm-61.572 0h61.572v-59.227h-61.572zm-61.572 0h61.571v-59.227H431zm-61.574 0h61.572v-59.227h-61.572zm-61.572 0h61.572v-59.227h-61.572z"/><path d="M246.287 44.514h61.571v-59.227h-61.571zm-61.573 0h61.571v-59.227h-61.571zm-61.573 0h61.572v-59.227h-61.572z"/><path d="M61.574 44.514h61.572v-59.227H61.574zM0 44.514h61.572v-59.227H.001z"/></g></g><defs><clipPath id="a"><path fill="#fff" d="M1293 696H0v-796h1293z"/></clipPath></defs></svg>