<svg preserveAspectRatio="none" overflow="visible" style="display: block;" width="55.6905" height="55.6905" viewBox="0 0 55.6905 55.6905" fill="none" xmlns="http://www.w3.org/2000/svg">
<g id="Text">
<path d="M0 27.8452C0 12.4667 12.4667 0 27.8452 0V0C43.2237 0 55.6905 12.4667 55.6905 27.8452V27.8452C55.6905 43.2237 43.2237 55.6905 27.8452 55.6905V55.6905C12.4667 55.6905 0 43.2237 0 27.8452V27.8452Z" fill="white"/>
<path id="Vector" fill-rule="evenodd" clip-rule="evenodd" d="M27.8452 18.8452C28.1105 18.8452 28.3648 18.9506 28.5524 19.1381C28.7399 19.3257 28.8452 19.58 28.8452 19.8452V20.8452H29.6092C29.9196 20.8453 30.2256 20.9175 30.5032 21.0562L32.0812 21.8452H35.8452C36.1105 21.8452 36.3648 21.9506 36.5524 22.1381C36.7399 22.3257 36.8452 22.58 36.8452 22.8452C36.8452 23.1105 36.7399 23.3648 36.5524 23.5524C36.3648 23.7399 36.1105 23.8452 35.8452 23.8452H35.4632L37.7392 28.3982C37.8092 28.5372 37.8452 28.6902 37.8452 28.8452C37.8452 29.9061 37.4238 30.9235 36.6737 31.6737C35.9235 32.4238 34.9061 32.8452 33.8452 32.8452C32.7844 32.8452 31.767 32.4238 31.0168 31.6737C30.2667 30.9235 29.8452 29.9061 29.8452 28.8452C29.8452 28.6902 29.8812 28.5372 29.9512 28.3982L32.2272 23.8452H32.0812C31.7709 23.8452 31.4648 23.773 31.1872 23.6342L29.6092 22.8452H28.8452V34.8452H31.8452C32.1105 34.8452 32.3648 34.9506 32.5524 35.1381C32.7399 35.3257 32.8452 35.58 32.8452 35.8452C32.8452 36.1105 32.7399 36.3648 32.5524 36.5524C32.3648 36.7399 32.1105 36.8452 31.8452 36.8452H23.8452C23.58 36.8452 23.3257 36.7399 23.1381 36.5524C22.9506 36.3648 22.8452 36.1105 22.8452 35.8452C22.8452 35.58 22.9506 35.3257 23.1381 35.1381C23.3257 34.9506 23.58 34.8452 23.8452 34.8452H26.8452V22.8452H26.0812L24.5032 23.6342C24.2256 23.773 23.9196 23.8452 23.6092 23.8452H23.4632L25.7392 28.3982C25.8088 28.537 25.8451 28.69 25.8452 28.8452C25.8452 29.9061 25.4238 30.9235 24.6737 31.6737C23.9235 32.4238 22.9061 32.8452 21.8452 32.8452C20.7844 32.8452 19.767 32.4238 19.0168 31.6737C18.2667 30.9235 17.8452 29.9061 17.8452 28.8452C17.8454 28.69 17.8817 28.537 17.9512 28.3982L20.2272 23.8452H19.8452C19.58 23.8452 19.3257 23.7399 19.1381 23.5524C18.9506 23.3648 18.8452 23.1105 18.8452 22.8452C18.8452 22.58 18.9506 22.3257 19.1381 22.1381C19.3257 21.9506 19.58 21.8452 19.8452 21.8452H23.6092L25.1872 21.0562C25.4648 20.9175 25.7709 20.8453 26.0812 20.8452H26.8452V19.8452C26.8452 19.58 26.9506 19.3257 27.1381 19.1381C27.3257 18.9506 27.58 18.8452 27.8452 18.8452Z" fill="#B96752"/>
</g>
</svg>
